PathFileType	4	(X/Y/Z)	paretic_pre_fa151403.trc
DataRate	CameraRate	NumFrames	NumMarkers	Units	OrigDataRate	OrigDataStartFrame	OrigNumFrames
58.68	58.68	21	11	cm	58.68	890	1017
Frame#	Time	NOSE			LEFT_SHOULDER			RIGHT_SHOULDER			LEFT_ELBOW			RIGHT_ELBOW			LEFT_WRIST			RIGHT_WRIST			LEFT_HIP			RIGHT_HIP			LEFT_INDEX			RIGHT_INDEX		
		X1	Y1	Z1	X2	Y2	Z2	X3	Y3	Z3	X4	Y4	Z4	X5	Y5	Z5	X6	Y6	Z6	X7	Y7	Z7	X8	Y8	Z8	X9	Y9	Z9	X10	Y10	Z10	X11	Y11	Z11
919	15.66229556803995	11.557513	-63.589852	-28.966117	14.503733	-50.563865	9.823894	-20.241107	-60.162974	-2.033623	21.720297	-22.525924	9.433163	-37.501822	-23.150756	-14.100345	36.145925	-8.180516	-0.796358	-28.542293	-11.765134	-32.736282	10.083498	-2.030302	11.993310	-9.653453	1.524775	-11.604065	37.593478	-7.332554	-5.823601	-14.790308	-18.735341	-42.985180
920	15.679338327091136	11.430576	-63.581672	-29.178924	14.452651	-50.556298	9.813689	-20.299014	-60.171642	-2.062933	21.676701	-22.463219	9.451749	-37.679664	-23.153700	-14.098512	36.216724	-8.104491	-0.474480	-28.643823	-11.815253	-32.598422	10.082975	-2.029017	11.992385	-9.653060	1.524044	-11.603137	37.812185	-7.274312	-5.433198	-14.913388	-18.843774	-42.817249
921	15.696381086142322	11.376534	-63.580181	-29.426700	14.408986	-50.561688	9.691371	-20.330137	-60.160257	-2.230003	21.629827	-22.464064	9.220408	-37.710057	-23.132222	-14.405249	36.224547	-8.104821	-0.718479	-28.652832	-11.860942	-32.727942	10.081388	-2.032031	11.991672	-9.651609	1.527397	-11.602581	37.840332	-7.271944	-5.676121	-14.946762	-18.915317	-42.899377
922	15.713423845193509	11.396200	-63.586509	-27.479644	14.407189	-50.561989	10.781547	-20.351748	-60.175070	-1.398947	21.733930	-22.464440	10.401091	-37.800568	-23.210377	-12.974560	36.251801	-8.081406	0.542059	-28.827104	-11.856959	-31.130952	10.084331	-2.028168	11.990958	-9.654773	1.522406	-11.602141	37.837985	-7.242294	-4.412925	-15.081876	-18.906880	-41.403822
923	15.730466604244693	11.330876	-63.565555	-27.550949	14.336575	-50.561635	10.593953	-20.398804	-60.141967	-1.458038	21.711260	-22.468861	10.172794	-37.793688	-23.159734	-13.162017	36.207683	-8.031108	0.078123	-28.830487	-11.761557	-31.655096	10.085564	-2.038799	11.986187	-9.655976	1.531903	-11.595532	37.734879	-7.105726	-4.989811	-15.094517	-18.763021	-42.032878
924	15.74750936329588	11.388571	-63.599730	-25.238064	14.406267	-50.499491	12.742900	-20.374294	-60.136471	0.421683	22.139956	-22.388902	11.925970	-37.698807	-23.116006	-12.386575	36.790476	-7.851541	1.951887	-28.815603	-11.767016	-31.519642	10.089788	-2.020708	11.984724	-9.660333	1.510955	-11.593955	38.244967	-6.842642	-3.083776	-15.096858	-18.779278	-41.915568
925	15.764552122347066	11.389022	-63.524926	-26.194692	14.406303	-50.496380	12.210384	-20.361142	-60.124384	0.147174	22.155105	-22.462110	11.484162	-37.672174	-23.101199	-12.852018	36.780306	-7.847579	1.344855	-28.801478	-11.754647	-32.274524	10.090388	-2.021427	11.983323	-9.660987	1.511684	-11.591908	38.226369	-6.801269	-3.765753	-15.078807	-18.758705	-42.741023
926	15.781594881398252	11.304128	-63.525308	-26.341456	14.326391	-50.498338	12.062300	-20.409546	-60.125639	-0.001430	22.063661	-22.461531	11.306652	-37.690943	-23.091020	-12.894521	36.710014	-7.847395	1.117903	-28.850495	-11.779717	-32.283492	10.097942	-2.021461	11.978541	-9.668603	1.511531	-11.586116	38.166836	-6.802481	-3.988692	-15.165086	-18.800951	-42.745776
927	15.798637640449439	11.297409	-63.591448	-26.467730	14.325689	-50.587622	11.950440	-20.407972	-60.179627	-0.053555	22.023623	-22.476509	11.231180	-37.678916	-23.092960	-12.908018	36.705493	-7.912257	1.071850	-28.840113	-11.843667	-32.252595	10.099191	-2.021198	11.978976	-9.669963	1.511418	-11.586867	38.157978	-6.924180	-4.072190	-15.167059	-18.904620	-42.631707
928	15.815680399500625	11.395379	-63.790646	-26.324035	14.311286	-50.800613	11.834851	-20.408096	-60.273152	-0.201622	22.045914	-22.816311	11.181925	-37.717730	-23.230014	-12.884483	36.643597	-8.148211	0.950648	-28.888023	-11.879348	-32.046486	10.098370	-2.023175	11.981797	-9.669274	1.513105	-11.590011	37.932407	-7.136329	-4.176438	-15.202211	-18.902727	-42.407749
929	15.83272315855181	11.478196	-63.904784	-26.059044	14.513368	-50.864423	12.173100	-20.340054	-60.421371	0.114565	22.366281	-22.989031	11.301998	-37.713815	-23.512602	-12.076114	36.625433	-8.252794	0.827525	-28.881520	-12.033149	-30.765252	10.109489	-2.015770	11.982938	-9.679236	1.505265	-11.592350	37.694148	-7.200883	-4.300433	-15.192898	-18.952367	-41.078638
930	15.849765917602996	11.474870	-63.894342	-28.170966	14.458121	-50.865654	9.904931	-20.425199	-60.415206	-1.778996	22.240378	-23.000785	9.032301	-37.954279	-23.543010	-13.987813	36.614190	-8.259744	-2.324890	-28.928896	-12.055259	-33.305906	10.116590	-2.034916	11.972153	-9.686696	1.525733	-11.581684	37.689465	-7.203602	-7.768119	-15.193676	-18.947595	-43.840274
931	15.866808676654182	11.444687	-63.891754	-28.729639	14.452582	-50.865658	9.608136	-20.483267	-60.424613	-2.021658	22.235900	-22.998245	8.833996	-38.039352	-23.568264	-14.189799	36.598211	-8.260290	-2.317273	-28.925988	-12.073116	-33.438291	10.117067	-2.038193	11.971463	-9.687290	1.529073	-11.581060	37.667856	-7.204405	-7.713432	-15.186263	-18.958726	-43.974404
932	15.883851435705369	11.437959	-63.834025	-28.639392	14.451621	-50.669814	9.675266	-20.498221	-60.294200	-1.967405	22.256286	-22.675459	8.844800	-38.028580	-23.344610	-14.177265	36.635896	-8.053430	-2.327163	-28.933390	-12.030146	-33.411530	10.116944	-2.037606	11.970826	-9.687428	1.528441	-11.580199	37.707970	-7.070975	-7.711455	-15.233046	-18.956039	-43.932999
933	15.900894194756555	11.371146	-63.837421	-29.125121	14.446320	-50.675887	9.405779	-20.496834	-60.290422	-2.092640	22.179458	-22.709844	8.425980	-37.956570	-23.340289	-14.676576	36.585129	-8.067232	-2.590477	-28.920328	-12.042543	-34.234561	10.117570	-2.041506	11.965309	-9.688106	1.532233	-11.573651	37.682998	-7.066194	-7.940212	-15.227316	-18.960887	-44.802170
934	15.91793695380774	11.357111	-63.848132	-28.989170	14.429703	-50.677763	9.598918	-20.499868	-60.284338	-2.009815	22.179716	-22.711684	8.782436	-37.951416	-23.340169	-14.540396	36.626164	-7.985755	-1.632211	-28.957574	-12.042172	-33.745897	10.118088	-2.040778	11.964222	-9.688629	1.531095	-11.572826	37.783237	-6.911885	-6.827023	-15.305723	-18.957670	-44.184215
935	15.934979712858926	11.343911	-63.874224	-29.021562	14.387256	-50.681764	9.589482	-20.519865	-60.277733	-2.088858	22.107105	-22.700451	8.726993	-37.960441	-23.330090	-14.847901	36.622525	-7.985763	-1.729559	-28.953522	-12.056320	-34.049835	10.117261	-2.043604	11.963558	-9.688062	1.534093	-11.572144	37.813481	-6.912637	-6.911657	-15.301133	-18.970363	-44.402328
936	15.952022471910112	11.305240	-63.950076	-28.534631	14.362384	-50.682576	9.796615	-20.565082	-60.300048	-1.848574	22.089650	-22.698276	8.979410	-38.037500	-23.453767	-14.160531	36.605153	-7.978625	-1.331129	-29.070737	-12.061555	-32.986995	10.118633	-2.046360	11.952091	-9.689617	1.536636	-11.561146	37.806616	-6.899096	-6.493588	-15.371266	-18.964089	-43.354340
937	15.969065230961299	11.256616	-63.690777	-28.763589	14.364107	-50.606923	9.751475	-20.579556	-60.259907	-1.855342	22.085855	-22.491426	8.888016	-38.033929	-23.284623	-14.151520	36.606087	-7.788558	-1.489396	-29.069821	-11.970062	-32.974310	10.120923	-2.046573	11.948588	-9.692100	1.536790	-11.557901	37.834540	-6.794555	-6.660511	-15.401812	-18.947560	-43.351046
938	15.986107990012485	11.277195	-63.691671	-27.185739	14.387307	-50.228815	11.126012	-20.563251	-60.167121	-0.590607	22.087229	-22.154838	9.495794	-37.817774	-23.245801	-13.703905	36.605539	-7.726652	-1.336964	-29.012463	-11.973866	-32.979649	10.124071	-2.031223	11.944593	-9.695672	1.519564	-11.551959	37.839630	-6.767086	-6.558268	-15.371035	-18.952252	-43.393536
939	16.00315074906367	11.275466	-63.823047	-27.105848	14.372143	-50.234656	11.138931	-20.558084	-60.155667	-0.591224	22.086066	-22.190478	9.582509	-37.810910	-23.210810	-13.611349	36.561871	-7.751832	-1.232239	-29.010234	-11.936395	-32.896279	10.123997	-2.031359	11.941948	-9.695442	1.519516	-11.548919	37.749935	-6.788049	-6.432065	-15.367919	-18.897622	-43.298061
